<svg viewBox="0 0 361 361" xml:space="preserve" style="fill-rule:evenodd;clip-rule:evenodd;stroke-linejoin:round;stroke-miterlimit:2">
  <circle cx="180" cy="179.987" r="180.013" transform="matrix(1 0 0 1 .01268646 .02531491)"/>
  <path d="M4595.87 1651.71c4.51-.52 9.1-.78 13.76-.78 2.96 0 4.43.41 4.43 1.21 0 .36-.32.85-.95 1.48-.35.39-.69.77-1.01 1.16 10.16 2.7 19.9 6.83 29.24 12.39 15.76 9.39 30.13 22.67 43.11 39.84 4.12-.9 9.79-1.35 17.04-1.35 3.66 0 7.24.14 10.73.41 3.49.27 6.66.67 9.52 1.2 8.23 1.61 15.65 4.43 22.27 8.46 10.02 6.08 15.02 13.72 15.02 22.93 0 5.55-1.63 10.09-4.89 13.62-3.27 3.53-7.27 5.3-12.01 5.3-.44 0-.94-.05-1.47-.14-4.12 0-7.56-1.09-10.33-3.28-2.77-2.19-4.74-4.94-5.9-8.25-.18-.9-.36-1.81-.54-2.75-.18-.94-.27-1.81-.27-2.62 0-1.52.16-2.77.47-3.75.31-.99.74-1.48 1.27-1.48.72 0 1.19.89 1.41 2.68.23 1.79 1.03 3.13 2.42 4.03 1.38.89 3.02 1.34 4.89 1.34.72 0 1.26-.05 1.61-.14 4.12-.8 6.17-3.75 6.17-8.85 0-4.92-2.72-9.21-8.18-12.88-4.11-2.77-8.92-4.76-14.42-5.97-5.5-1.2-10.8-1.81-15.9-1.81-2.86 0-5.38.14-7.57.41-2.19.26-4.27.58-6.24.93 5.9 10.29 10.68 22.41 14.35 36.36 4.21 15.92 6.31 32.06 6.31 48.42 0 7.96-.67 16.46-2.02 25.49-1.34 9.03-2.81 18.15-4.42 27.36-1.08 7.78-1.75 13.46-2.01 17.04-.27 3.58-.41 6.75-.41 9.52 0 1.43-.4 2.15-1.2 2.15-.45 0-1.03-.27-1.75-.8-1.34-1.17-2.77-2.29-4.29-3.36-2.24-1.61-4.9-3.17-7.98-4.69-3.09-1.52-5.81-2.73-8.19-3.63-2.36-.89-4.85-1.74-7.44-2.54-.89-.27-1.34-.72-1.34-1.35 0-.71.54-1.34 1.61-1.87 3.93-1.97 7.15-3.94 9.66-5.91 4.65-3.66 8.14-7.95 10.46-12.87 3.67-8.14 6.04-17.35 7.11-27.64.63-5.9.94-15.65.94-29.24 0-12.43-2.37-25.8-7.11-40.11-3.58-10.73-7.92-20.61-13.01-29.64-9.93 3.31-18.89 7.44-26.9 12.4-8 4.97-15.13 10.94-21.39 17.91-10.38 11.72-17.75 24.37-22.14 37.97-1.07 3.34-1.95 6.7-2.64 10.08v29.62c0 1.7 1.36 3.58 4.07 5.64 3.63 2.72 5.53 4.21 5.71 4.47.18.18.32.44.41.79.09.27.13.49.13.66 0 .97-.8 1.45-2.42 1.45-.25.03-.65.04-1.2.03-.92.05-2.33 0-4.21-.16-5.39-.42-9.51-.64-12.37-.67-2.86.03-6.98.25-12.37.67-1.89.16-3.29.21-4.21.16-.55.01-.95 0-1.2-.03-1.62 0-2.43-.48-2.43-1.45 0-.17.05-.39.14-.66.09-.35.23-.61.41-.79.18-.26 2.08-1.75 5.7-4.47 2.72-2.06 4.08-3.94 4.08-5.64v-29.62c-.69-3.38-1.58-6.74-2.65-10.08-4.38-13.6-11.75-26.25-22.13-37.97-6.26-6.97-13.39-12.94-21.39-17.91-8.01-4.96-16.97-9.09-26.9-12.4-5.1 9.03-9.43 18.91-13.01 29.64-4.74 14.31-7.11 27.68-7.11 40.11 0 13.59.31 23.34.94 29.24 1.07 10.29 3.44 19.5 7.11 27.64 2.32 4.92 5.81 9.21 10.46 12.87 2.5 1.97 5.72 3.94 9.66 5.91 1.07.53 1.61 1.16 1.61 1.87 0 .63-.45 1.08-1.34 1.35-2.6.8-5.08 1.65-7.45 2.54-2.37.9-5.1 2.11-8.18 3.63-3.09 1.52-5.75 3.08-7.98 4.69-1.52 1.07-2.95 2.19-4.29 3.36-.72.53-1.3.8-1.75.8-.8 0-1.21-.72-1.21-2.15 0-2.77-.13-5.94-.4-9.52-.27-3.58-.94-9.26-2.01-17.04-1.61-9.21-3.08-18.33-4.43-27.36-1.34-9.03-2.01-17.53-2.01-25.49 0-16.36 2.1-32.5 6.31-48.42 3.66-13.95 8.45-26.07 14.35-36.36-1.97-.35-4.05-.67-6.24-.93-2.19-.27-4.72-.41-7.58-.41-5.09 0-10.39.61-15.89 1.81-5.5 1.21-10.31 3.2-14.42 5.97-5.46 3.67-8.19 7.96-8.19 12.88 0 5.1 2.06 8.05 6.17 8.85.36.09.9.14 1.61.14 1.88 0 3.51-.45 4.9-1.34 1.39-.9 2.19-2.24 2.42-4.03.22-1.79.69-2.68 1.4-2.68.54 0 .96.49 1.28 1.48.31.98.47 2.23.47 3.75 0 .81-.09 1.68-.27 2.62-.18.94-.36 1.85-.54 2.75-1.16 3.31-3.13 6.06-5.9 8.25-2.77 2.19-6.22 3.28-10.33 3.28-.54.09-1.03.14-1.47.14-4.74 0-8.75-1.77-12.01-5.3s-4.9-8.07-4.9-13.62c0-9.21 5.01-16.85 15.03-22.93 6.62-4.03 14.04-6.85 22.26-8.46 2.87-.53 6.04-.93 9.53-1.2 3.49-.27 7.06-.41 10.73-.41 7.24 0 12.92.45 17.04 1.35 12.98-17.17 27.35-30.45 43.11-39.84 9.33-5.56 19.08-9.69 29.24-12.39-.32-.39-.66-.77-1.01-1.16-.64-.63-.95-1.12-.95-1.48 0-.8 1.47-1.21 4.43-1.21 4.66 0 9.25.26 13.76.78Zm-11.48 11.02c-12.01 2.65-23.94 8.11-35.79 16.38-6.97 4.82-12.61 9.43-16.9 13.81-4.29 4.38-8.85 10.15-13.68 17.31 7.69 2.59 14.71 5.63 21.06 9.12 5.63 3.13 11.4 7.06 17.3 11.8 6.53 5.19 12.16 10.69 16.9 16.5 4.08 5 8.32 11.27 12.71 18.83v-83.33c0-9.83-.53-16.64-1.6-20.42Zm22.96 0c-1.07 3.78-1.6 10.59-1.6 20.42v83.33c4.39-7.56 8.62-13.83 12.7-18.83 4.74-5.81 10.38-11.31 16.91-16.5 5.9-4.74 11.67-8.67 17.3-11.8 6.35-3.49 13.37-6.53 21.06-9.12-4.83-7.16-9.39-12.93-13.68-17.31-4.3-4.38-9.93-8.99-16.9-13.81-11.86-8.27-23.78-13.73-35.79-16.38Z" style="fill:#fff;fill-rule:nonzero;stroke:#fff;stroke-width:.81px" transform="matrix(.97319 0 0 1.33613 -4292.64965742 -2197.80156873)"/>
</svg>
