<?xml version="1.0" encoding="UTF-8" standalone="no"?>
<!DOCTYPE svg PUBLIC "-//W3C//DTD SVG 1.1//EN" "http://www.w3.org/Graphics/SVG/1.1/DTD/svg11.dtd">
<svg width="100%" height="100%" viewBox="0 0 1045 792" version="1.1" xmlns="http://www.w3.org/2000/svg" xmlns:xlink="http://www.w3.org/1999/xlink" xml:space="preserve" xmlns:serif="http://www.serif.com/" style="fill-rule:evenodd;clip-rule:evenodd;stroke-linecap:round;stroke-linejoin:round;stroke-miterlimit:1.5;">
    <g transform="matrix(1,0,0,1,-47.2425,-17.9433)">
        <g transform="matrix(0.896125,0,0,1,-23.7969,-43.5881)">
            <g transform="matrix(1.01086,0,0,1.04176,32.9036,-33.4888)">
                <path d="M186.195,402.203C268.777,421.274 445.61,514.668 511.665,607.937C658.361,347.089 802.742,191.515 962.355,95.992C1017.74,155.677 1139.88,214.145 1199.23,250.025C1026.5,323.598 776.834,500.532 521.7,849.847C405.408,734.236 212.592,667.366 83.384,634.423L186.195,402.203Z" style="fill:rgb(43,233,34);fill-opacity:0.43;"/>
            </g>
            <g transform="matrix(1.01086,0,0,1.04176,-1.68977,-35.4888)">
                <path d="M186.195,402.203C268.777,421.274 445.61,514.668 511.665,607.937C658.361,347.089 802.742,191.515 962.355,95.992C1017.74,155.677 1139.88,214.145 1199.23,250.025C1026.5,323.598 776.834,500.532 521.7,849.847C405.408,734.236 212.592,667.366 83.384,634.423L186.195,402.203Z" style="fill:rgb(43,233,34);stroke:black;stroke-width:6.11px;"/>
            </g>
        </g>
    </g>
</svg>
